<svg width="26" height="26" viewBox="0 0 26 26" fill="none" xmlns="http://www.w3.org/2000/svg">
<path d="M22.73 14.3718C22.73 13.9799 22.8626 13.5879 22.8626 13.0653C22.8626 12.5427 22.8626 12.1507 22.73 11.7588L25.515 9.53767C25.7803 9.27636 25.7803 9.01506 25.6477 8.75375L22.9953 4.1809C22.8626 4.05024 22.5975 3.91959 22.1995 4.05024L18.8841 5.35677C18.221 4.83416 17.4252 4.4422 16.6295 4.05024L16.099 0.653265C16.2317 0.261306 15.8338 0 15.5686 0H10.2638C9.99849 0 9.60069 0.261306 9.60069 0.522612L9.07021 4.05024C8.27449 4.31155 7.61139 4.83416 6.81568 5.35677L3.63281 4.05024C3.23495 3.91959 2.96971 4.05024 2.70442 4.31155L0.0520273 8.88441C-0.0805923 9.01506 0.0520273 9.40702 0.317266 9.66832L3.10228 11.7588C3.10228 12.1507 2.96966 12.5427 2.96966 13.0653C2.96966 13.5879 2.96966 13.9799 3.10228 14.3718L0.317266 16.5929C0.0520273 16.8543 0.0520273 17.1155 0.184647 17.3769L2.83704 21.9498C2.96966 22.0804 3.23484 22.2111 3.63276 22.0804L6.94824 20.7739C7.61134 21.2965 8.40706 21.6885 9.20278 22.0804L9.73325 25.4774C9.73325 25.7387 9.99849 26 10.3964 26H15.7011C15.9664 26 16.3642 25.7386 16.3642 25.4774L16.8947 22.0804C17.6904 21.6885 18.4861 21.2965 19.1492 20.7739L22.4647 22.0804C22.73 22.2111 23.1278 22.0804 23.2605 21.8191L25.9129 17.2462C26.0455 16.9849 26.0455 16.5929 25.7802 16.4623L22.73 14.3718ZM12.9162 17.6382C10.3964 17.6382 8.27449 15.5477 8.27449 13.0653C8.27449 10.5829 10.3964 8.49245 12.9162 8.49245C15.4359 8.49245 17.5579 10.5829 17.5579 13.0653C17.5579 15.5477 15.4359 17.6382 12.9162 17.6382Z" fill="#8A8A8A"/>
</svg>
